<svg xmlns="http://www.w3.org/2000/svg" xmlns:xlink="http://www.w3.org/1999/xlink" version="1.1" x="0px" y="0px" viewBox="0 0 64 80" style="enable-background:new 0 0 64 64;" xml:space="preserve"><style type="text/css">
	.st0{display:none;}
	.st1{display:inline;}
	.st2{fill:none;stroke:#101827;stroke-width:0.1;stroke-miterlimit:10;}
</style><g class="st0"><g class="st1"><rect x="2" y="2" class="st2" width="60" height="60"/><line class="st2" x1="32" y1="2" x2="32" y2="62"/><line class="st2" x1="62" y1="32" x2="2" y2="32"/><line class="st2" x1="2" y1="2" x2="62" y2="62"/><rect x="10" y="10" class="st2" width="44" height="44"/><line class="st2" x1="62" y1="2" x2="2" y2="62"/><line class="st2" x1="2" y1="32" x2="32" y2="2"/><line class="st2" x1="32" y1="2" x2="62" y2="32"/><line class="st2" x1="62" y1="32" x2="32" y2="62"/><line class="st2" x1="32" y1="62" x2="2" y2="32"/><circle class="st2" cx="32" cy="32" r="21"/></g></g><path d="M49,61c-7.2,0-13-5.8-13-13s5.8-13,13-13s13,5.8,13,13S56.2,61,49,61z M49,37c-6.1,0-11,4.9-11,11s4.9,11,11,11  s11-4.9,11-11S55.1,37,49,37z"/><polygon points="58,47 50,47 50,39 48,39 48,47 40,47 40,49 48,49 48,57 50,57 50,49 58,49 "/><path d="M34.3,45H5c-0.6,0-1-0.4-1-1V25h6v6h8v-6h20v6h8v-6h6v8.3c0.7,0.1,1.4,0.3,2,0.6V14c0-1.7-1.3-3-3-3H38V6c0-1.7-1.3-3-3-3  H21c-1.7,0-3,1.3-3,3v5H5c-1.7,0-3,1.3-3,3v30c0,1.7,1.3,3,3,3h29.1C34.1,46.3,34.2,45.7,34.3,45z M20,6c0-0.6,0.4-1,1-1h14  c0.6,0,1,0.4,1,1v5H20V6z M4,14c0-0.6,0.4-1,1-1h46c0.6,0,1,0.4,1,1v9h-8v6h-4v-6H16v6h-4v-6H4V14z"/></svg>